<svg width="106" height="29" viewBox="0 0 106 29" fill="none" xmlns="http://www.w3.org/2000/svg">
<path d="M3.67141 25.9838C3.67141 26.3607 3.68284 26.7375 3.66855 27.1143C3.63569 28.0122 2.97131 28.7515 2.11834 28.8529C1.13106 28.9699 0.323813 28.4746 0.0794938 27.5896C0.0309158 27.4141 0.00376945 27.2257 0.00376945 27.043C-0.000516842 18.6471 -0.00194561 10.2512 0.00376945 1.85528C0.00519822 0.520676 1.15821 -0.3015 2.42838 0.103878C3.17277 0.342252 3.66855 1.03596 3.67141 1.87527C3.67712 3.52533 3.67284 5.17539 3.67284 6.82545C3.67284 8.20145 3.67284 9.57888 3.67284 10.9549C3.67284 11.0405 3.67284 11.1262 3.67284 11.2175C4.01145 10.8478 4.31007 10.4696 4.66297 10.1484C6.72468 8.26854 9.13072 7.52344 11.8882 8.05871C14.61 8.58684 16.6103 10.137 17.9876 12.5079C19.1935 14.5847 19.5793 16.85 19.4464 19.2223C19.3192 21.5018 18.6606 23.6044 17.2747 25.4372C15.7216 27.4897 13.6628 28.7059 11.0781 28.9442C8.17773 29.2126 5.78455 28.162 3.81571 26.0652C3.78428 26.0309 3.76142 25.9881 3.73427 25.9482C3.71284 25.961 3.69141 25.9724 3.67141 25.9838ZM9.46791 25.597C11.7311 25.5756 13.3427 24.7334 14.5343 23.1091C15.3944 21.9372 15.8145 20.5983 15.9245 19.1566C16.0502 17.5251 15.8259 15.9536 15.0229 14.5119C13.8799 12.4565 12.1383 11.3174 9.75366 11.3074C7.36476 11.2975 5.56166 12.3923 4.43865 14.4705C3.17705 16.8029 3.12562 19.2694 4.12004 21.696C5.12589 24.1496 7.00329 25.4942 9.46791 25.597Z" fill="#29C5BF"/>
<path d="M74.5367 17.5466C74.6796 17.4181 74.7696 17.341 74.8567 17.2611C77.8757 14.4877 80.8961 11.7143 83.9151 8.94085C84.258 8.62539 84.6338 8.36989 85.1095 8.3028C85.9039 8.19147 86.4326 8.59828 86.8398 9.21062C87.2027 9.75589 87.177 10.4125 86.7812 10.9506C86.6483 11.1305 86.4869 11.2932 86.3197 11.4416C84.1751 13.3572 82.0263 15.267 79.8788 17.1797C79.8131 17.2382 79.7502 17.2982 79.6788 17.3653C80.6632 18.4315 81.6334 19.485 82.6049 20.5369C84.0965 22.1527 85.5853 23.77 87.0784 25.3843C87.557 25.9025 87.7999 26.4963 87.6084 27.1971C87.4156 27.9051 86.9026 28.3262 86.2183 28.5075C85.5625 28.6802 84.9824 28.5046 84.5066 27.9979C81.9963 25.3273 79.4816 22.6623 76.9699 19.9945C76.937 19.9603 76.9156 19.9132 76.8827 19.8632C76.797 19.9346 76.7413 19.9774 76.6884 20.0245C76.0412 20.6055 75.3997 21.1935 74.7453 21.7674C74.5924 21.9015 74.5295 22.0357 74.531 22.2412C74.5395 23.7057 74.5324 25.1717 74.5381 26.6362C74.5395 27.21 74.3895 27.7181 73.9595 28.1178C73.3865 28.6488 72.7136 28.7458 72.0063 28.4718C71.3148 28.2049 70.9476 27.661 70.8776 26.9216C70.869 26.8331 70.869 26.7447 70.869 26.6562C70.869 18.4287 70.869 10.2012 70.8676 1.97234C70.8676 1.53413 70.9476 1.12733 71.2105 0.764771C71.6692 0.133865 72.4564 -0.137337 73.2279 0.0767709C73.9352 0.272323 74.4624 0.924638 74.5224 1.68401C74.5338 1.83674 74.5367 1.98947 74.5367 2.1422C74.5367 7.14948 74.5367 12.1568 74.5367 17.164C74.5367 17.2682 74.5367 17.3724 74.5367 17.5466Z" fill="#555555"/>
<path d="M98.1527 28.9899C96.7097 28.9685 94.9166 28.6174 93.2606 27.7124C92.2348 27.1514 91.379 26.3892 90.6732 25.4614C90.1388 24.7591 90.1902 23.9198 90.7689 23.356C91.449 22.6951 92.332 22.6209 93.0392 23.1904C93.3064 23.406 93.535 23.6729 93.7779 23.9184C95.3195 25.47 97.1912 26.1437 99.3615 25.9924C100.166 25.9367 100.917 25.6955 101.625 25.293C102.923 24.555 103.061 22.2998 101.725 21.4019C100.872 20.8281 99.9115 20.5084 98.9428 20.2029C97.6627 19.8004 96.3739 19.4193 95.1066 18.9825C93.9993 18.6 93.0578 17.9519 92.2891 17.0555C91.5518 16.1962 91.2475 15.1828 91.1989 14.0794C91.0889 11.5786 92.342 9.90147 94.4737 8.79524C96.0567 7.97307 97.7598 7.7561 99.5201 7.96879C100.993 8.14578 102.383 8.56972 103.628 9.40188C104.242 9.81297 104.775 10.3154 105.208 10.9135C105.639 11.5101 105.622 12.1582 105.189 12.722C104.731 13.3186 104.062 13.5513 103.396 13.283C103.132 13.1759 102.885 12.9761 102.688 12.7648C101.002 10.9577 98.127 10.6323 96.3211 11.306C95.6724 11.5487 95.118 11.9069 94.878 12.5949C94.5122 13.6398 94.6651 14.993 96.0067 15.691C97.0997 16.2591 98.2742 16.5973 99.4543 16.9185C100.675 17.2497 101.892 17.5979 103.018 18.1817C104.242 18.8155 105.234 19.7148 105.664 21.0579C106.505 23.69 105.784 26.1237 103.312 27.701C101.946 28.5703 100.304 29.0056 98.1527 28.9899Z" fill="#555555"/>
<path d="M34.417 8.04156C34.417 9.19775 34.417 10.3468 34.417 11.4759C33.9241 11.4188 33.4397 11.3345 32.9525 11.3117C30.0579 11.1718 27.619 12.8961 26.6503 15.6338C25.883 17.8035 25.9487 19.9702 26.9846 22.0542C28.9506 26.0067 34.167 26.826 37.2503 23.6686C38.3004 22.5938 38.8976 21.282 39.1162 19.8004C39.1748 19.4036 39.1991 19.001 39.242 18.58C40.4335 18.58 41.6451 18.58 42.9067 18.58C42.8667 19.0881 42.8482 19.5991 42.781 20.1058C42.521 22.0913 41.7752 23.8756 40.485 25.4129C38.8962 27.307 36.8673 28.4504 34.4256 28.85C32.5353 29.1598 30.6822 28.997 28.8948 28.2933C26.6517 27.4098 24.9429 25.9039 23.7884 23.7885C22.5797 21.5732 22.2768 19.1995 22.6197 16.7258C22.9155 14.5876 23.7756 12.7034 25.2315 11.1033C26.646 9.54888 28.4005 8.57398 30.4508 8.12863C31.6824 7.86171 32.9254 7.82888 34.1741 7.99161C34.2541 8.0016 34.3313 8.02444 34.417 8.04156Z" fill="#555555"/>
<path d="M56.0957 28.9899C56.0957 27.8495 56.0957 26.7404 56.0957 25.6184C56.4814 25.577 56.8672 25.5628 57.243 25.4928C59.2975 25.1132 60.7863 23.9555 61.7707 22.1385C63.0666 19.7476 62.9652 16.0578 61.0906 13.7155C59.789 12.0882 58.0902 11.2889 56.0042 11.3032C53.0681 11.3217 50.6521 13.2972 49.8691 16.2548C49.6976 16.9014 49.6691 17.5865 49.5776 18.2546C49.5648 18.3488 49.5662 18.443 49.5605 18.5486C48.3417 18.5486 47.1373 18.5486 45.9371 18.5486C45.9371 18.2146 45.9157 17.8863 45.94 17.5608C46.13 15.0372 47.0287 12.8076 48.7804 10.9606C50.3163 9.34194 52.2108 8.37703 54.414 8.0316C56.2642 7.74184 58.0774 7.89457 59.829 8.57116C62.1308 9.45899 63.8596 11.0063 65.0226 13.1788C66.0913 15.1743 66.4313 17.3139 66.2499 19.5535C66.0956 21.4719 65.4898 23.2304 64.3682 24.7991C62.8823 26.8803 60.8749 28.1835 58.386 28.7501C57.643 28.92 56.8843 28.9942 56.0957 28.9899Z" fill="#555555"/>
</svg>
